<?xml version="1.0" standalone="no"?>
<!DOCTYPE svg PUBLIC "-//W3C//DTD SVG 20010904//EN"
 "http://www.w3.org/TR/2001/REC-SVG-20010904/DTD/svg10.dtd">
<svg version="1.0" xmlns="http://www.w3.org/2000/svg"
 width="300.000000pt" height="300.000000pt" viewBox="0 0 300.000000 300.000000"
 preserveAspectRatio="xMidYMid meet">

<g transform="translate(0.000000,300.000000) scale(0.100000,-0.100000)"
fill="#000000" stroke="none">
<path d="M1360 2994 c-203 -24 -380 -77 -550 -165 -140 -73 -246 -150 -364
-266 -216 -215 -363 -490 -422 -793 -25 -132 -25 -408 0 -540 93 -477 405
-884 836 -1089 94 -45 251 -98 337 -114 l33 -6 2 222 c3 214 4 222 23 222 19
0 20 -8 25 -225 l5 -224 25 -7 c32 -9 327 -11 369 -3 l31 6 2 227 c3 218 4
226 23 226 19 0 20 -8 23 -223 l2 -223 38 7 c87 16 244 69 342 115 296 141
537 375 689 669 119 231 165 422 165 690 0 268 -46 459 -165 690 -102 198
-261 383 -444 520 -159 118 -391 220 -593 261 -94 18 -353 32 -432 23z m440
-743 c151 -51 228 -110 250 -192 13 -48 7 -81 -27 -156 -29 -62 -26 -104 9
-148 17 -22 22 -45 26 -126 3 -54 8 -99 13 -99 16 0 37 45 43 94 8 66 36 121
60 121 29 0 61 -50 60 -93 -2 -74 -73 -167 -160 -211 -29 -14 -44 -29 -49 -48
-8 -33 -89 -197 -116 -234 -15 -22 -20 -49 -23 -140 -8 -236 -87 -353 -327
-486 l-56 -32 -64 42 c-90 59 -191 161 -222 227 -31 64 -47 139 -47 219 0 51
-4 62 -45 116 -41 55 -145 251 -159 300 -3 11 -26 30 -50 43 -55 29 -87 63
-120 126 -28 53 -33 94 -15 129 13 26 49 56 66 57 13 0 36 -66 53 -152 6 -32
15 -60 19 -62 4 -3 13 30 20 72 15 91 38 148 74 181 42 38 44 79 8 143 -82
145 -1 253 240 317 107 28 119 29 289 26 144 -2 162 -4 250 -34z"/>
</g>
</svg>
