<?xml version="1.0" standalone="no"?>
<!DOCTYPE svg PUBLIC "-//W3C//DTD SVG 20010904//EN"
 "http://www.w3.org/TR/2001/REC-SVG-20010904/DTD/svg10.dtd">
<svg version="1.0" xmlns="http://www.w3.org/2000/svg"
 width="603.000000pt" height="602.000000pt" viewBox="0 0 603.000000 602.000000"
 preserveAspectRatio="xMidYMid meet">

<g transform="translate(0.000000,602.000000) scale(0.100000,-0.100000)"
fill="#000000" stroke="none">
<path d="M1645 5286 c-8 -19 -31 -47 -52 -63 l-36 -28 -236 -6 c-246 -7 -326
-18 -418 -59 -50 -22 -88 -52 -105 -83 -7 -14 3 -12 51 12 153 78 299 103 542
94 174 -7 214 6 274 89 l16 23 20 -25 c16 -18 19 -33 15 -59 -6 -41 -26 -66
-26 -33 0 12 -4 22 -10 22 -16 0 -40 -45 -38 -71 2 -15 -3 -24 -14 -27 -14 -3
-15 1 -5 33 7 26 7 39 0 46 -14 14 -53 -57 -53 -96 0 -27 -6 -30 -29 -16 -11
7 -11 13 3 32 18 26 21 59 6 59 -6 0 -28 -28 -50 -62 -21 -35 -55 -84 -75
-110 -57 -76 -44 -94 20 -27 38 38 146 99 178 99 17 0 82 -138 99 -209 9 -42
9 -53 -5 -75 -30 -45 -23 -72 55 -198 50 -82 56 -97 36 -99 -58 -5 -75 -11
-90 -29 -15 -19 -16 -24 -3 -43 12 -19 12 -25 0 -40 -10 -15 -11 -25 -3 -43 9
-19 8 -28 -7 -44 -18 -19 -18 -22 -2 -56 22 -45 21 -67 -3 -89 -16 -15 -33
-17 -102 -13 -98 5 -192 42 -304 119 -68 48 -94 58 -94 40 0 -5 19 -25 41 -46
23 -20 37 -40 32 -44 -14 -10 -53 -68 -53 -80 0 -18 28 -12 34 7 4 11 17 29
31 42 20 19 27 21 39 11 13 -11 11 -18 -15 -53 -29 -41 -37 -68 -20 -68 7 0
47 45 72 83 4 5 19 7 34 3 l28 -7 -48 -49 c-36 -36 -46 -53 -40 -67 6 -15 14
-10 59 39 l52 57 59 -17 c33 -9 63 -21 67 -26 4 -6 12 -33 19 -60 6 -27 22
-65 35 -84 13 -19 21 -39 18 -44 -15 -23 -270 13 -416 58 -71 23 -78 27 -102
69 -13 25 -28 55 -31 68 -4 12 -27 66 -52 120 -45 94 -47 97 -80 97 -23 0 -33
-5 -33 -15 0 -8 6 -15 13 -15 26 0 55 -46 96 -150 l41 -105 -20 -27 c-27 -36
-42 -111 -38 -188 7 -143 -42 -32 -57 130 -9 95 -34 176 -63 205 -33 34 -121
59 -207 59 -59 0 -78 -4 -117 -27 -58 -34 -78 -62 -113 -157 -36 -98 -45 -240
-34 -545 11 -292 37 -675 50 -734 11 -52 25 -79 35 -68 10 10 9 47 -4 177 -26
268 -36 473 -37 765 0 278 2 316 19 365 27 80 65 147 95 167 39 27 180 24 244
-5 60 -27 71 -51 92 -208 9 -65 23 -137 32 -159 8 -22 17 -47 20 -56 2 -10
-10 -38 -29 -66 -18 -26 -40 -68 -47 -91 -10 -31 -19 -41 -29 -37 -8 3 -26 -5
-39 -17 -19 -18 -26 -20 -32 -9 -6 9 11 43 51 103 70 106 76 118 54 118 -9 0
-39 -34 -68 -76 -42 -60 -54 -71 -56 -55 -4 23 102 189 125 198 17 7 17 33 0
33 -17 0 -66 -52 -107 -115 -18 -27 -42 -60 -52 -71 -18 -20 -18 -25 -4 -85
21 -93 60 -197 127 -341 32 -69 59 -131 59 -137 0 -7 7 -14 15 -18 9 -3 42
-46 75 -95 95 -145 99 -223 22 -409 -60 -145 -74 -229 -52 -321 5 -24 24 -106
41 -182 16 -77 34 -146 38 -154 12 -22 2 -50 -20 -57 -78 -25 -248 145 -325
326 -20 46 -53 118 -73 159 -21 42 -55 128 -75 193 -21 64 -42 117 -48 117
-20 0 -20 -36 1 -113 12 -45 25 -92 28 -104 4 -15 -1 -23 -16 -28 -12 -3 -29
-17 -37 -30 -15 -22 -13 -29 21 -107 48 -106 62 -122 99 -108 50 19 61 13 84
-42 29 -69 162 -241 213 -275 24 -16 59 -28 88 -31 43 -4 53 -1 75 21 17 17
26 37 26 57 0 40 9 38 45 -13 16 -23 46 -60 65 -81 33 -37 34 -39 10 -32 -66
18 -80 19 -80 3 0 -17 26 -29 130 -57 61 -17 118 -22 303 -27 125 -3 230 -9
232 -13 2 -3 -14 -30 -36 -58 -42 -57 -47 -72 -24 -72 9 0 37 29 63 65 47 66
83 88 105 66 8 -8 8 -11 -1 -11 -14 0 -72 -87 -72 -107 0 -28 27 -10 63 43 20
30 37 59 37 65 0 5 36 9 80 9 44 0 80 -3 80 -6 0 -3 -11 -19 -25 -36 -24 -28
-34 -78 -16 -78 13 0 61 77 61 99 0 17 5 19 38 14 20 -3 38 -7 40 -8 1 -1 -11
-19 -28 -40 -30 -37 -34 -56 -14 -61 14 -5 64 67 64 93 0 19 5 23 30 23 35 0
36 -5 10 -45 -20 -31 -27 -75 -11 -75 13 0 62 79 60 98 -1 9 1 25 6 35 4 10 4
21 0 25 -3 4 -47 6 -96 4 -50 -1 -95 0 -100 4 -6 3 -3 16 8 32 36 54 162 306
157 314 -11 17 -34 -15 -94 -130 -34 -65 -75 -134 -91 -154 -16 -20 -29 -41
-29 -46 0 -6 -6 -12 -12 -14 -23 -8 -258 4 -258 13 0 5 43 65 95 135 88 117
109 154 86 154 -10 0 -196 -230 -220 -272 -14 -24 -23 -28 -58 -28 -24 0 -43
2 -43 5 0 2 30 42 67 87 67 84 123 165 123 180 0 4 -6 8 -12 8 -13 -1 -210
-245 -216 -267 -4 -16 -69 -17 -214 -3 -115 11 -163 24 -153 40 8 13 -27 74
-99 169 -31 41 -56 78 -56 81 0 4 46 10 103 13 56 3 123 13 147 22 25 9 83 27
130 41 127 37 381 166 394 200 4 9 4 19 2 22 -3 2 -83 -34 -178 -81 -95 -48
-200 -93 -233 -102 -33 -8 -94 -24 -136 -35 -58 -16 -100 -20 -174 -18 l-98 3
-24 65 c-20 56 -22 78 -18 161 3 55 14 124 25 160 18 58 32 76 135 184 106
111 135 155 102 155 -8 0 -44 -34 -81 -76 -38 -41 -70 -73 -73 -70 -14 14 15
71 67 130 54 61 73 96 52 96 -4 0 -28 -20 -52 -45 -24 -25 -48 -45 -52 -45
-17 0 -7 46 15 70 33 36 67 86 67 99 0 23 -30 9 -63 -29 -19 -22 -36 -40 -40
-40 -3 0 -17 20 -32 45 l-26 46 30 38 c17 21 37 44 46 51 18 15 20 50 3 50 -7
0 -33 -23 -56 -50 -35 -41 -47 -49 -58 -39 -23 19 -17 35 31 89 47 53 52 64
33 76 -6 4 -32 -16 -63 -51 -49 -54 -53 -57 -64 -38 -8 17 -6 24 10 38 22 21
79 104 79 117 0 22 -32 3 -66 -37 -20 -25 -40 -45 -45 -45 -21 0 -6 34 38 88
40 49 44 58 28 61 -12 2 -33 -12 -59 -39 l-39 -43 -19 23 c-23 28 -22 43 2
158 25 119 48 170 116 258 l55 72 47 -16 c40 -14 88 -16 308 -14 l261 2 6 -28
c3 -16 21 -47 39 -68 35 -43 55 -116 77 -293 12 -91 14 -97 32 -86 14 9 4 162
-16 245 -19 74 -22 114 -10 120 9 5 64 -177 106 -350 11 -47 36 -133 55 -191
19 -58 34 -115 34 -126 0 -31 10 -53 25 -53 8 0 23 -13 34 -29 22 -31 27 -46
12 -37 -18 12 -40 -7 -52 -42 -31 -99 -99 -151 -99 -76 0 30 7 43 40 73 42 39
53 77 23 83 -10 2 -44 0 -76 -5 -32 -5 -61 -6 -65 -3 -12 12 27 39 75 51 37 9
50 18 57 38 13 36 -28 115 -104 199 -40 44 -77 100 -110 166 -27 55 -54 103
-60 107 -64 40 37 -185 131 -291 33 -38 72 -88 86 -112 30 -51 26 -59 -50 -86
-52 -20 -80 -57 -70 -96 6 -21 10 -22 57 -16 28 3 62 9 76 13 23 6 23 4 -12
-35 -32 -35 -38 -49 -38 -86 0 -66 7 -76 50 -76 45 0 78 33 115 116 l23 52 39
-8 c21 -5 83 -14 138 -20 101 -11 258 -44 305 -63 14 -5 32 -11 40 -12 9 -1
39 -10 68 -20 l52 -19 0 -163 c0 -158 1 -163 23 -174 12 -6 24 -13 26 -15 2
-2 -11 -15 -28 -29 -59 -51 -33 -62 33 -14 35 25 51 30 87 27 l44 -3 -37 -23
c-36 -22 -51 -52 -27 -52 6 0 33 16 59 35 52 38 116 68 132 63 6 -2 -15 -23
-46 -46 -51 -39 -72 -72 -45 -72 6 0 34 20 63 45 29 25 56 42 59 38 15 -14 5
-45 -20 -68 -22 -19 -25 -26 -16 -36 10 -10 16 -9 31 4 10 9 24 17 30 17 19 0
14 -24 -8 -38 -11 -7 -20 -19 -20 -27 0 -17 25 -20 35 -5 3 6 10 10 15 10 14
0 43 -68 36 -86 -9 -23 3 -37 20 -24 10 9 29 7 81 -11 l67 -22 -37 -31 c-20
-17 -37 -39 -37 -48 0 -25 4 -23 61 22 35 28 60 40 82 40 l32 0 -25 -20 c-14
-11 -37 -28 -52 -37 -29 -18 -38 -43 -15 -43 7 0 41 20 75 45 34 25 68 45 76
45 31 0 23 -18 -25 -54 -47 -35 -57 -55 -33 -63 6 -2 37 22 69 52 54 50 63 54
93 49 62 -12 76 -72 92 -419 15 -309 25 -453 33 -462 27 -26 32 81 18 336 -19
332 -30 441 -52 490 -11 24 -18 46 -16 47 2 2 32 -1 66 -7 108 -17 1112 -12
1270 7 l55 7 -32 -41 c-32 -39 -40 -62 -23 -62 4 0 31 25 59 55 49 53 54 55
102 55 46 0 50 -2 41 -18 -6 -11 -25 -30 -43 -45 -76 -59 -138 -125 -132 -141
9 -23 17 -20 56 22 19 20 67 67 106 105 40 37 72 73 72 81 0 26 -74 39 -182
32 -287 -20 -375 -26 -393 -26 -295 -4 -961 8 -1040 18 -192 26 -335 54 -377
75 -47 24 -55 42 -57 119 l-1 48 33 -6 c17 -3 38 -8 46 -10 8 -3 114 -14 235
-26 361 -36 1036 -37 1036 -2 0 12 -61 14 -377 14 -208 0 -412 4 -453 10 -41
6 -151 17 -245 25 -93 8 -197 20 -231 26 -55 10 -63 14 -78 45 -9 19 -16 37
-16 39 0 3 43 5 95 5 72 0 96 -3 102 -15 15 -26 214 -44 528 -47 249 -3 296
-1 333 13 23 9 45 13 48 8 7 -12 76 -11 109 1 39 15 20 32 -31 28 -24 -2 -45
2 -46 7 -2 6 23 11 57 13 33 1 67 5 75 8 26 9 -19 34 -62 34 -21 0 -38 3 -38
8 1 20 20 31 60 34 32 2 45 7 45 18 0 11 -13 16 -43 18 -38 3 -43 6 -40 25 2
16 11 23 31 25 38 5 29 26 -14 33 -46 7 -59 16 -59 40 0 16 7 19 45 19 32 0
45 4 45 14 0 16 -30 26 -82 26 -26 0 -40 6 -47 19 -9 15 -7 20 12 25 12 3 37
6 55 6 22 0 32 4 30 13 -3 7 -30 14 -68 17 -101 8 -89 32 23 42 53 5 27 23
-44 30 -118 10 -122 42 -6 51 65 5 68 4 88 -24 11 -16 40 -71 64 -122 25 -52
54 -102 65 -112 11 -10 18 -25 16 -32 -6 -16 38 -69 73 -87 14 -8 48 -17 75
-21 35 -6 50 -13 53 -26 3 -11 8 -19 12 -20 49 -3 638 -6 644 -2 4 2 3 11 -4
19 -9 11 -44 14 -148 15 -135 1 -422 14 -389 17 9 1 21 10 27 20 8 15 33 18
222 22 157 4 213 8 217 18 3 9 -26 12 -125 12 -70 0 -165 3 -209 6 -71 6 -81
9 -77 24 6 23 43 30 172 31 129 1 203 10 208 26 3 8 -49 10 -200 6 -204 -6
-205 -6 -217 16 -21 41 -6 54 53 46 84 -11 115 -10 135 8 14 13 45 17 157 19
100 2 140 6 143 16 3 9 -25 12 -117 12 -66 0 -122 4 -125 9 -3 4 1 17 9 27 11
16 27 19 108 19 53 0 99 4 103 8 16 16 -22 27 -93 27 -56 0 -73 3 -73 14 0 11
20 16 78 21 106 9 105 8 110 23 3 9 -16 12 -72 12 -41 0 -77 4 -80 9 -3 5 22
15 55 22 53 12 58 15 43 26 -10 7 -30 13 -46 13 -35 0 -35 12 -3 93 14 34 50
145 79 247 67 230 90 330 117 505 5 39 12 81 15 95 2 14 8 63 13 110 9 79 28
224 51 380 5 36 14 125 21 198 11 132 11 133 -12 167 -13 19 -29 35 -34 35 -6
0 -27 -11 -46 -25 -20 -13 -39 -22 -41 -20 -13 13 6 64 28 76 33 17 32 43 -1
35 -23 -6 -25 -4 -25 26 -1 30 -19 68 -33 68 -3 0 -7 -50 -9 -110 -2 -78 -7
-113 -16 -119 -8 -4 -24 -26 -37 -47 l-24 -39 -1 33 c0 18 16 64 35 102 19 38
35 74 35 80 0 18 -28 11 -35 -9 -3 -11 -13 -25 -22 -32 -14 -12 -15 -10 -8 21
4 19 16 49 26 66 10 17 19 39 19 48 0 19 -26 22 -33 4 -2 -7 -7 -10 -11 -7 -4
4 -2 26 4 49 10 38 9 45 -8 62 -26 26 -241 80 -477 118 -104 17 -249 42 -321
56 -72 13 -142 24 -155 25 -17 1 -12 4 16 11 56 14 156 4 330 -32 121 -25 387
-74 503 -94 13 -2 21 1 19 7 -9 27 -59 47 -152 61 -55 8 -194 34 -310 57 -167
34 -231 43 -315 43 -102 0 -158 -13 -145 -34 3 -5 -4 -14 -15 -20 -42 -22 -23
-38 53 -43 149 -10 785 -126 810 -147 9 -8 -10 -49 -37 -84 -15 -18 -19 -18
-103 -3 -48 9 -119 22 -158 28 -38 7 -130 29 -204 51 -73 21 -171 46 -217 55
-80 17 -83 17 -103 -1 -19 -17 -21 -31 -21 -121 0 -57 -7 -138 -15 -181 -8
-44 -19 -119 -24 -169 -6 -49 -18 -139 -26 -200 -31 -213 -36 -282 -42 -506
l-5 -226 40 -32 c22 -18 53 -51 70 -74 17 -23 56 -68 86 -101 l55 -58 -20 -39
c-22 -44 -30 -47 -50 -20 -51 68 -211 260 -220 263 -11 4 -7 72 22 358 5 58
14 197 19 310 5 113 14 310 21 438 9 174 9 236 1 244 -7 7 -14 10 -16 7 -8 -8
-25 -246 -36 -514 -10 -250 -16 -340 -41 -673 -9 -116 -9 -156 -1 -164 7 -7
12 -19 12 -27 0 -9 43 -68 95 -131 154 -187 215 -269 215 -285 0 -12 -16 -15
-88 -15 -96 0 -132 -14 -132 -53 0 -41 28 -103 80 -178 l51 -74 -38 -7 c-57
-10 -111 -9 -118 2 -3 6 5 10 19 10 13 0 37 5 53 11 39 15 13 29 -54 29 -46 0
-53 3 -53 20 0 17 7 20 52 20 50 0 51 0 33 20 -13 15 -31 20 -65 20 -70 0 -96
33 -35 44 46 9 45 23 -2 31 -63 11 -66 14 -117 91 -35 54 -63 85 -103 112
l-54 36 -72 -12 c-40 -7 -75 -16 -80 -21 -5 -5 -27 -6 -50 -4 -63 7 -271 -49
-264 -72 8 -22 144 -34 164 -14 6 6 9 18 6 25 -3 10 2 14 18 14 18 0 20 -3 10
-9 -8 -5 -11 -16 -8 -24 5 -13 12 -14 38 -7 43 13 71 4 144 -41 57 -36 118
-89 111 -97 -2 -2 -26 8 -53 22 -45 22 -154 56 -182 56 -6 0 -11 -6 -11 -14 0
-8 24 -23 58 -35 40 -14 48 -20 27 -18 l-30 2 4 -67 3 -68 -27 0 c-22 0 -26 3
-19 18 21 49 1 85 -66 115 l-45 20 32 9 c18 5 35 13 38 18 12 19 -27 23 -83 9
-61 -14 -70 -16 -90 -18 -31 -3 -2 -24 63 -47 122 -42 135 -54 110 -101 -8
-16 -16 -36 -19 -46 -8 -25 -69 -20 -74 6 -3 14 2 18 20 17 43 -4 50 -1 40 16
-5 9 -62 34 -128 56 l-118 40 -54 -17 c-30 -9 -56 -14 -59 -12 -9 10 -16 167
-7 167 5 0 35 4 66 9 45 8 63 17 85 41 18 20 45 35 77 43 54 14 69 31 37 42
-31 10 -98 -13 -136 -46 -34 -30 -81 -49 -122 -49 -17 0 -22 7 -25 33 l-3 32
-75 -1 c-58 0 -91 -7 -145 -29 -38 -15 -76 -34 -83 -42 -7 -7 -29 -13 -47 -13
-19 0 -67 -13 -107 -29 -40 -16 -89 -32 -108 -36 -19 -4 -52 -14 -72 -22 -34
-14 -38 -19 -38 -51 l0 -35 -25 23 c-29 28 -33 25 -55 -37 -24 -71 -45 -70
-36 1 l6 57 -117 116 c-65 64 -147 143 -183 176 -36 33 -83 76 -104 96 -22 20
-48 40 -59 46 -13 6 -25 28 -32 56 -7 25 -19 59 -28 75 -8 16 -23 61 -32 99
-10 39 -36 106 -58 149 -32 62 -50 85 -83 105 -63 38 -71 91 -15 91 15 0 43
10 62 23 27 18 35 31 37 59 2 20 -4 50 -12 66 -14 27 -13 30 7 50 18 19 20 25
9 42 -9 15 -9 25 0 45 9 21 9 31 0 46 -17 27 -16 29 19 29 37 0 65 14 78 39 8
15 0 36 -41 102 -28 46 -57 99 -65 118 -13 31 -13 36 6 62 19 26 20 30 5 84
-8 32 -33 97 -56 146 l-41 90 25 27 c63 67 73 131 31 198 -34 54 -59 57 -78
10z m2930 -312 c104 -30 223 -58 265 -64 41 -6 135 -21 208 -35 92 -16 141
-21 157 -15 l24 9 -5 -92 c-5 -89 -8 -97 -91 -282 -47 -104 -102 -224 -123
-265 -20 -41 -49 -106 -65 -145 -15 -38 -103 -223 -196 -410 -171 -345 -198
-410 -165 -404 11 3 25 24 36 54 10 28 86 185 169 350 83 165 163 332 177 370
15 39 44 102 65 140 20 39 46 93 57 120 11 28 43 97 71 155 l52 105 -6 -84
c-6 -89 -24 -141 -75 -221 -16 -25 -43 -79 -61 -120 -50 -118 -221 -461 -309
-620 -45 -80 -97 -178 -116 -219 l-36 -74 -49 49 c-44 43 -47 50 -34 64 8 9
15 20 15 25 0 4 31 71 69 149 37 77 72 152 76 166 4 14 53 119 107 235 55 115
111 239 125 275 13 36 58 132 99 213 41 81 74 155 74 163 0 8 20 62 45 118 43
100 57 162 34 154 -11 -4 -88 -178 -110 -247 -10 -34 -78 -182 -119 -261 -10
-19 -34 -73 -53 -120 -19 -47 -70 -157 -112 -245 -42 -88 -97 -209 -122 -270
-25 -60 -64 -146 -87 -190 -22 -44 -48 -97 -57 -118 l-15 -37 -110 127 c-60
70 -129 148 -152 173 l-44 45 6 225 c5 213 11 295 35 470 6 41 20 143 31 225
12 83 26 212 32 288 l11 138 41 -7 c23 -3 126 -31 231 -60z m600 27 c3 -6 -7
-28 -22 -50 -44 -64 -59 -51 -23 19 20 40 33 49 45 31z m75 -19 c0 -5 -14 -28
-31 -52 -22 -30 -34 -39 -41 -32 -14 14 35 92 57 92 8 0 15 -4 15 -8z m227
-316 c-3 -7 -28 -28 -57 -45 l-51 -32 3 33 c2 27 12 39 53 66 49 33 50 33 53
12 2 -12 1 -27 -1 -34z m-151 -83 c-3 -27 -11 -49 -16 -51 -5 -2 -20 -21 -32
-43 -26 -47 -43 -51 -34 -8 3 17 6 38 6 45 0 8 6 14 14 14 8 0 22 20 33 45 24
59 37 57 29 -2z m137 -23 c-4 -4 -30 -20 -56 -35 l-48 -28 3 39 c2 30 7 38 20
36 9 -1 32 7 50 18 l33 20 3 -21 c2 -12 0 -25 -5 -29z m2 -81 c-4 -17 -22 -32
-56 -48 -52 -25 -65 -24 -54 6 7 22 97 82 108 73 4 -4 5 -18 2 -31z m-182
-108 c-46 -64 -67 -77 -57 -34 4 15 14 37 24 48 9 11 28 38 41 60 l24 40 3
-29 c3 -21 -7 -44 -35 -85z m167 9 c0 -20 -7 -33 -22 -41 -13 -6 -35 -23 -50
-37 -33 -31 -43 -25 -34 22 5 27 16 40 49 59 55 32 57 32 57 -3z m-168 -120
c-11 -10 -29 -34 -41 -54 -13 -20 -25 -36 -27 -36 -2 0 -4 18 -4 40 0 34 4 42
25 50 13 5 32 24 42 42 l18 33 3 -29 c2 -18 -3 -34 -16 -46z m158 20 c0 -24
-10 -38 -52 -71 -44 -35 -54 -39 -56 -24 -3 11 17 38 49 71 29 30 55 54 56 54
2 0 3 -13 3 -30z m-260 -34 c0 -2 -7 -38 -14 -80 -15 -77 -97 -246 -251 -521
-34 -60 -104 -191 -155 -290 -51 -99 -95 -182 -97 -184 -2 -3 -10 2 -17 10
-12 12 -8 27 33 109 56 115 172 327 212 391 16 26 40 74 54 108 13 34 36 83
50 109 15 26 35 67 45 92 37 92 121 260 130 260 6 0 10 -2 10 -4z m104 -84
c-4 -18 -12 -32 -19 -32 -7 0 -27 -23 -45 -50 -18 -28 -35 -49 -37 -46 -9 9
18 86 31 86 7 0 26 18 40 41 31 46 39 46 30 1z m146 19 c0 -24 -16 -43 -61
-72 -27 -17 -52 -29 -55 -26 -10 9 9 58 20 54 7 -3 27 8 46 24 37 30 50 35 50
20z m-185 -268 c-54 -325 -102 -552 -162 -761 -34 -118 -42 -134 -67 -147 -16
-8 -31 -15 -33 -15 -13 0 11 57 38 89 34 42 36 51 9 51 -28 0 -26 8 20 69 40
53 46 88 9 55 -34 -31 -22 8 16 53 19 23 35 46 35 52 0 17 -21 13 -36 -6 -19
-26 -18 1 2 39 9 17 29 49 45 71 30 42 37 67 18 67 -7 0 -18 -8 -25 -17 -24
-33 -17 10 9 48 52 77 68 109 61 120 -5 9 -15 3 -31 -17 -36 -46 -27 -13 17
60 39 64 49 96 31 96 -5 0 -18 -15 -30 -32 -19 -30 -21 -31 -21 -10 0 13 18
54 40 92 49 84 62 117 50 125 -5 3 -22 -15 -38 -40 -15 -25 -31 -43 -33 -40
-3 2 -3 24 1 47 4 34 9 43 24 41 11 -1 27 15 44 43 15 24 28 40 30 34 2 -5 -8
-81 -23 -167z m154 121 c-12 -14 -81 -54 -94 -54 -3 0 -5 8 -5 18 0 11 22 34
53 55 48 34 52 35 55 16 2 -11 -2 -27 -9 -35z m-1 -76 c-2 -15 -22 -35 -55
-57 -50 -32 -64 -53 -45 -65 5 -3 25 7 45 21 21 14 39 24 42 21 12 -12 -10
-39 -51 -63 -24 -14 -44 -32 -44 -40 0 -19 19 -19 44 0 26 20 36 19 36 -4 0
-13 -18 -30 -54 -50 -29 -17 -57 -31 -61 -31 -7 0 -6 14 14 130 6 36 13 79 16
97 4 21 10 30 19 27 8 -3 29 4 47 15 43 27 51 26 47 -1z m-273 -65 c-4 -38
-17 -86 -28 -108 -36 -73 -199 -349 -257 -435 -31 -47 -73 -115 -94 -152 -20
-38 -41 -68 -46 -68 -11 0 63 161 124 271 26 45 46 83 46 86 0 2 34 66 77 141
42 75 90 166 108 202 46 96 65 130 71 130 3 0 2 -30 -1 -67z m-3950 -12 c94
-39 253 -71 385 -77 71 -3 131 -1 138 4 11 8 10 17 -7 50 -11 23 -29 46 -38
51 -17 10 -17 10 -1 11 10 0 31 -19 48 -41 22 -31 29 -51 28 -83 0 -22 1 -48
3 -56 3 -13 -18 -16 -131 -21 -74 -3 -178 -10 -231 -14 -53 -4 -116 -5 -140
-1 l-44 6 0 47 c0 27 -5 48 -12 50 -18 6 -27 -41 -13 -67 11 -21 10 -22 -22
-15 -53 12 -67 23 -74 60 -7 37 2 98 18 128 8 17 11 17 26 4 9 -8 40 -24 67
-36z m4185 -206 c0 -19 -14 -33 -62 -65 -51 -33 -64 -38 -66 -25 -6 29 8 65
26 66 9 0 33 11 52 24 45 30 50 30 50 0z m-3574 -9 c8 -33 2 -69 -13 -73 -13
-5 -53 52 -53 74 0 10 8 13 52 22 4 0 10 -10 14 -23z m3303 -18 c-5 -24 -11
-53 -14 -65 -3 -14 -13 -23 -24 -23 -12 0 -25 -15 -37 -42 -10 -24 -37 -70
-59 -103 -23 -33 -74 -123 -114 -200 -40 -77 -75 -142 -77 -144 -2 -2 -10 1
-18 8 -12 10 -6 26 36 104 28 51 65 112 82 137 33 45 137 218 192 317 16 29
32 53 35 53 4 0 3 -19 -2 -42z m247 -83 c-4 -14 -11 -25 -17 -25 -6 0 -30 -13
-54 -30 -49 -34 -58 -36 -53 -16 3 14 120 106 127 100 2 -2 1 -15 -3 -29z
m-32 -141 c-11 -47 -24 -78 -34 -81 -8 -3 -31 -13 -51 -24 -44 -23 -49 -23
-49 -4 0 8 25 33 55 55 30 22 55 45 55 50 0 13 -4 13 -47 -5 -41 -17 -58 -10
-28 11 11 8 40 29 65 48 25 18 47 31 49 30 2 -2 -4 -38 -15 -80z m-269 -25
c-14 -56 -21 -69 -36 -69 -11 0 -23 -8 -26 -17 -4 -10 -40 -74 -80 -141 -69
-117 -89 -169 -61 -160 7 3 46 62 86 132 41 70 76 126 77 124 4 -4 -31 -176
-40 -200 -4 -9 -12 -15 -20 -12 -7 3 -24 -14 -41 -39 l-28 -45 -33 25 c-18 14
-33 34 -33 44 0 28 113 248 180 350 33 50 61 96 61 103 1 6 3 3 6 -7 3 -10 -3
-50 -12 -88z m-4168 -7 c-11 -60 -29 -78 -35 -34 -3 18 35 109 42 100 2 -1 -1
-31 -7 -66z m1086 1 l36 -38 -23 -22 -24 -23 -11 28 c-19 45 -30 92 -22 92 4
0 23 -17 44 -37z m2487 -60 c0 -18 -38 -63 -52 -63 -11 0 -1 37 18 68 16 24
34 21 34 -5z m-2294 -126 c71 -73 142 -143 157 -155 26 -19 28 -25 22 -66 -11
-69 -1 -96 35 -96 26 0 33 7 52 45 21 44 22 44 46 29 26 -17 52 -5 52 25 0 30
29 59 65 65 20 4 76 23 125 42 49 18 103 34 121 34 30 0 31 -2 25 -31 -8 -42
11 -215 30 -266 9 -24 22 -43 30 -43 15 0 46 -59 38 -72 -3 -5 -22 -8 -42 -8
-58 0 -164 -29 -177 -47 -11 -15 -16 -16 -41 -4 l-29 13 51 23 c27 12 68 28
90 35 64 21 87 50 40 50 -25 0 -61 -12 -174 -59 l-74 -31 -66 17 c-37 9 -69
18 -71 19 -2 2 4 22 14 44 30 67 0 68 -35 1 -16 -33 -23 -38 -45 -33 -22 4
-26 9 -21 28 8 30 -15 32 -42 4 -15 -16 -26 -19 -71 -13 -32 3 -64 15 -80 27
-14 12 -38 30 -53 39 -15 10 -35 29 -44 42 -17 25 -16 26 50 94 36 38 66 72
66 75 0 17 -32 1 -85 -44 -47 -40 -61 -47 -63 -34 -2 10 18 39 49 70 39 40 50
57 42 65 -8 8 -23 0 -56 -30 -24 -23 -47 -41 -51 -41 -16 0 -2 26 39 72 25 28
45 54 45 59 0 19 -28 7 -60 -26 -64 -66 -85 -27 -25 45 19 23 35 46 35 51 0
17 -27 9 -50 -16 -16 -17 -27 -22 -34 -15 -6 6 1 23 22 49 18 22 32 42 32 45
0 12 -38 5 -50 -9 -7 -9 -15 -13 -18 -11 -6 7 37 76 48 76 4 0 66 -60 136
-133z m3102 25 c-12 -41 -27 -72 -34 -72 -7 0 -29 -10 -49 -21 -20 -12 -38
-19 -41 -16 -15 14 11 48 52 68 43 20 63 43 51 55 -3 3 -19 -2 -36 -10 -35
-18 -41 -19 -41 -7 0 10 111 83 117 77 2 -1 -7 -35 -19 -74z m-755 52 c7 -7
-41 -74 -53 -74 -4 0 -11 7 -14 17 -11 28 47 77 67 57z m49 -61 c18 -16 18
-17 -9 -45 -15 -15 -32 -28 -39 -28 -23 0 -24 32 -2 60 27 35 27 34 50 13z
m-660 -30 c79 -71 150 -199 354 -631 34 -73 60 -141 57 -150 -2 -10 -20 -24
-39 -31 -22 -8 -34 -19 -34 -31 0 -10 -4 -22 -10 -25 -5 -3 -10 -14 -10 -25 0
-20 -19 -30 -58 -30 l-25 0 22 24 c29 31 24 57 -14 68 -46 13 -459 30 -560 23
-50 -3 -109 -12 -130 -20 -22 -8 -47 -14 -56 -15 -23 0 -33 42 -13 53 9 5 30
22 47 37 l31 27 17 -21 c16 -19 18 -20 24 -3 9 22 -3 87 -15 87 -5 0 -32 -20
-59 -44 -47 -42 -167 -98 -242 -113 -35 -7 -34 -13 -11 152 l17 120 110 44
c61 23 123 44 140 46 16 1 44 10 60 19 42 22 105 20 207 -8 48 -14 115 -25
149 -25 70 0 81 -5 53 -26 -34 -26 -154 -19 -232 12 -83 33 -121 34 -178 3
-78 -43 -44 -70 36 -29 45 24 38 24 160 -20 35 -13 80 -20 126 -21 83 0 111
-17 72 -44 -12 -9 -30 -16 -40 -16 -9 0 -20 -4 -23 -10 -3 -5 -15 -10 -26 -10
-12 0 -19 -5 -16 -12 2 -7 16 -13 30 -13 36 1 35 -23 0 -27 -39 -4 -35 -22 6
-26 20 -2 41 -13 52 -25 25 -31 35 -14 21 36 -9 36 -9 44 6 55 26 20 36 10 57
-63 22 -73 45 -97 45 -48 0 28 -43 170 -62 206 -7 15 -4 24 13 43 30 33 17 56
-39 68 -45 11 -50 17 -27 36 20 17 19 47 -3 59 -18 10 -68 118 -59 128 3 3 18
1 34 -4 23 -8 42 -35 100 -144 40 -74 87 -170 104 -214 43 -112 81 -185 96
-185 18 0 16 25 -7 69 -10 21 -37 83 -59 137 -21 55 -69 153 -105 219 -36 66
-66 128 -66 137 0 10 -13 32 -28 50 -16 18 -49 61 -75 95 -26 34 -56 65 -67
68 -36 11 -10 25 46 25 48 0 58 -4 96 -37z m-758 -50 c4 -43 9 -105 11 -138 3
-33 2 -65 -2 -71 -31 -42 -172 -104 -207 -91 -28 11 -55 199 -39 272 7 33 16
44 52 64 23 13 66 27 94 31 92 13 85 18 91 -67z m1454 -15 c-18 -15 -36 -28
-40 -28 -16 0 -7 25 19 52 21 22 29 25 41 16 12 -10 8 -17 -20 -40z m-78 -59
c0 -4 -9 -11 -20 -14 -24 -7 -27 -35 -4 -35 8 0 24 4 34 10 13 7 21 6 30 -5
10 -12 5 -17 -29 -31 -23 -9 -41 -22 -41 -30 0 -17 7 -17 65 -2 35 9 48 9 57
0 9 -9 -2 -18 -50 -39 -34 -14 -62 -32 -62 -40 0 -18 27 -16 78 7 l42 19 0
-23 c0 -18 -5 -23 -25 -23 -29 0 -55 -19 -55 -39 0 -18 20 -18 48 2 12 8 22
14 23 12 0 -2 2 -14 4 -28 2 -14 6 -36 10 -50 9 -35 -17 -69 -42 -54 -21 13
-83 100 -118 167 -25 47 -55 63 -55 29 0 -21 76 -156 122 -218 18 -24 42 -47
53 -51 11 -3 60 -7 110 -7 l90 -1 32 -55 c38 -63 40 -83 13 -110 -23 -23 -88
-27 -172 -9 -61 13 -122 66 -134 115 -12 50 -94 201 -181 332 -45 70 -83 132
-83 139 0 6 -4 15 -10 18 -16 10 -12 42 6 49 9 3 46 6 84 6 78 0 85 -7 64 -65
-16 -46 -18 -95 -5 -95 15 0 50 82 57 133 l7 48 28 -27 c16 -15 29 -31 29 -35z
m148 39 c18 -18 -46 -82 -65 -67 -18 16 -16 29 9 56 24 26 38 29 56 11z m562
-6 c0 -10 -6 -25 -12 -34 -14 -16 -97 -52 -105 -44 -9 8 8 46 20 46 7 0 28 11
47 25 42 29 50 30 50 7z m-505 -42 c7 -12 -56 -91 -67 -84 -16 10 -8 40 17 67
27 29 40 33 50 17z m52 -56 c7 -19 -60 -90 -76 -80 -16 11 -14 18 20 59 33 40
46 45 56 21z m397 -58 c-33 -98 -101 -208 -134 -216 -18 -5 -24 -12 -23 -27 1
-12 -4 -24 -12 -27 -16 -6 -18 6 -9 41 4 14 15 23 32 25 31 4 42 28 13 28 -25
0 -26 11 -6 50 10 19 23 30 36 30 25 0 59 17 59 30 0 6 -13 10 -30 10 -45 0
-38 26 9 34 38 6 70 30 57 43 -3 3 -22 2 -41 -4 -19 -6 -35 -7 -35 -3 0 7 34
26 107 59 1 1 -10 -32 -23 -73z m-220 27 c-8 -45 -21 -63 -30 -40 -5 13 23 77
34 77 1 0 0 -17 -4 -37z m-1169 6 c9 -14 7 -15 -37 -23 -34 -6 -38 -5 -38 14
0 16 6 20 34 20 19 0 38 -5 41 -11z m-439 -19 c28 -10 29 -13 32 -82 2 -40 8
-80 12 -89 8 -13 -8 -23 -91 -58 -93 -40 -102 -42 -118 -27 -10 9 -35 16 -59
16 -40 0 -62 17 -62 50 0 13 158 9 198 -5 23 -8 23 -7 20 76 -3 83 -3 84 -30
87 -39 5 -35 17 10 29 51 14 55 14 88 3z m1483 -3 c8 -11 2 -23 -28 -55 -31
-33 -42 -38 -50 -28 -9 10 -4 23 21 54 37 46 41 48 57 29z m195 -52 c-12 -38
-25 -60 -39 -65 -11 -4 -36 -24 -54 -44 -27 -28 -32 -39 -23 -48 9 -9 17 -6
37 12 29 27 31 18 9 -35 -13 -31 -19 -36 -38 -31 -16 4 -26 1 -30 -10 -4 -10
-16 -14 -38 -12 -28 3 -35 10 -56 58 l-24 55 34 -32 c40 -39 57 -42 51 -10 -4
18 8 35 56 80 34 31 61 61 61 66 0 13 61 83 67 77 3 -2 -4 -30 -13 -61z
m-1576 13 c14 -18 34 -130 24 -140 -4 -4 -17 -5 -30 -2 -16 5 -22 14 -22 34 0
15 -3 48 -6 74 -6 37 -4 46 8 46 9 0 20 -6 26 -12z m375 -30 c18 -38 9 -55
-22 -38 -12 6 -31 8 -41 5 -15 -5 -22 0 -30 20 -16 41 -13 45 34 45 39 0 45
-3 59 -32z m1071 4 c15 -18 14 -21 -25 -57 -32 -29 -45 -36 -57 -28 -25 15
-24 26 9 66 34 42 48 45 73 19z m-1656 -14 c3 -14 -3 -18 -30 -18 -18 0 -40 5
-48 10 -13 9 -13 11 0 20 24 16 74 8 78 -12z m1488 -45 c36 -43 36 -46 14 -40
-14 4 -37 7 -52 7 -25 0 -28 4 -28 33 0 62 16 62 66 0z m-1020 9 c15 -22 15
-24 -2 -36 -12 -10 -27 -11 -48 -5 -17 5 -32 9 -33 9 -2 0 -3 13 -3 28 0 26 3
29 35 28 24 -1 40 -9 51 -24z m-537 -13 c70 -2 96 -19 29 -19 -62 0 -119 11
-112 21 3 5 9 7 13 5 4 -3 36 -6 70 -7z m405 -8 c7 -10 -45 -22 -59 -13 -5 3
1 9 15 13 36 10 38 10 44 0z m286 -21 c0 -20 -46 -40 -78 -34 -42 9 -40 18 6
31 50 14 72 15 72 3z m-842 -25 c16 -34 15 -55 -1 -55 -7 0 -18 18 -24 40 -12
47 6 57 25 15z m1720 -29 c3 -14 -2 -17 -29 -14 -38 4 -50 25 -17 31 33 6 43
3 46 -17z m22 -50 c0 -2 3 -11 6 -20 5 -14 -4 -16 -60 -16 -66 0 -77 5 -54 28
11 11 108 18 108 8z m-1617 -96 c-1 -65 -25 -234 -39 -281 -7 -24 -212 -44
-273 -27 -55 16 -61 31 -19 43 48 15 48 35 -1 35 l-41 0 5 131 c3 72 7 134 10
138 11 19 148 37 275 36 l85 0 -2 -75z m187 -258 c17 -6 -72 -20 -135 -20
l-40 -1 55 18 c51 17 83 18 120 3z m960 -2 c0 -5 -5 -10 -11 -10 -5 0 -7 5 -4
10 3 6 8 10 11 10 2 0 4 -4 4 -10z m-750 -10 c0 -20 -61 -42 -97 -35 -42 8
-36 16 20 32 54 14 77 15 77 3z m80 -20 c-52 -44 -83 -38 -40 8 12 12 33 22
48 22 l27 -1 -35 -29z m110 26 c0 -13 -61 -66 -76 -66 -14 0 -11 7 16 35 29
29 60 46 60 31z m80 -3 c-1 -13 -48 -63 -60 -63 -17 0 -11 22 12 47 21 22 48
31 48 16z m98 -16 c-16 -13 -28 -28 -28 -35 0 -7 -15 -12 -37 -12 l-37 0 34
35 c24 25 42 35 64 35 l31 -1 -27 -22z m97 -23 c-33 -32 -68 -44 -79 -26 -6
10 41 57 64 64 8 3 23 3 32 0 14 -3 11 -10 -17 -38z m115 21 c0 -2 -5 -16 -12
-30 -9 -20 -18 -25 -46 -25 l-36 0 29 30 c24 25 65 41 65 25z m-3498 -51 c16
-38 18 -48 7 -55 -24 -16 -43 -5 -57 33 -29 76 17 96 50 22z m2533 -46 c14
-29 25 -69 25 -87 0 -47 -13 -31 -39 46 -35 103 -26 127 14 41z m-2482 -52 c8
-21 -21 -42 -41 -30 -23 15 -26 32 -5 37 33 8 41 7 46 -7z"/>
<path d="M4356 5002 c-8 -13 -10 -101 -3 -109 14 -13 25 12 29 61 2 31 -1 51
-9 53 -6 2 -14 0 -17 -5z"/>
<path d="M4414 4955 c-7 -28 0 -55 15 -55 9 0 21 33 21 63 0 26 -29 20 -36 -8z"/>
<path d="M4488 4945 c-8 -18 -8 -29 -1 -36 16 -16 33 -2 33 26 0 34 -18 40
-32 10z"/>
<path d="M4558 4923 c-6 -27 2 -55 15 -50 18 6 21 67 4 67 -8 0 -17 -8 -19
-17z"/>
<path d="M4635 4900 c-9 -28 11 -52 25 -30 6 8 9 21 7 29 -4 23 -25 24 -32 1z"/>
<path d="M4710 4869 c0 -24 23 -21 28 4 2 10 -3 17 -12 17 -10 0 -16 -9 -16
-21z"/>
<path d="M4772 4843 c5 -25 28 -28 28 -4 0 12 -6 21 -16 21 -9 0 -14 -7 -12
-17z"/>
<path d="M5029 4827 c-9 -18 -51 -97 -93 -176 -42 -80 -76 -149 -76 -154 0 -4
8 -7 18 -5 10 2 40 47 77 121 59 116 104 182 72 107 -62 -147 -140 -315 -226
-485 -55 -110 -122 -253 -150 -317 -27 -64 -81 -183 -120 -265 -71 -148 -93
-213 -73 -213 11 0 130 229 177 340 32 75 34 80 116 260 34 74 98 209 144 300
45 91 95 194 110 230 108 252 106 246 75 273 -27 23 -32 22 -51 -16z"/>
<path d="M1107 3844 c-10 -11 -8 -94 2 -94 13 0 25 80 14 91 -5 5 -12 6 -16 3z"/>
<path d="M1214 3766 c-7 -18 14 -49 27 -40 12 7 5 47 -9 52 -7 2 -15 -4 -18
-12z"/>
<path d="M2150 2920 c-43 -39 -52 -52 -42 -62 10 -10 23 -1 64 40 37 36 49 55
42 62 -8 8 -27 -4 -64 -40z"/>
<path d="M2189 2871 c-29 -30 -36 -46 -21 -55 9 -5 82 60 82 74 0 20 -32 9
-61 -19z"/>
<path d="M2249 2811 c-33 -27 -14 -47 21 -21 18 14 22 22 14 30 -8 8 -17 5
-35 -9z"/>
<path d="M2501 2787 c-24 -26 -27 -47 -8 -47 16 0 50 57 39 64 -5 3 -19 -5
-31 -17z"/>
<path d="M2590 2786 c-13 -17 -7 -46 9 -46 14 0 25 40 14 51 -6 6 -15 4 -23
-5z"/>
<path d="M3886 3131 c-4 -5 16 -52 44 -103 28 -51 86 -165 128 -253 69 -142
92 -192 123 -272 5 -13 16 -23 25 -23 30 0 9 59 -100 281 -115 234 -190 372
-205 377 -5 2 -12 -1 -15 -7z"/>
<path d="M3491 2587 c-21 -26 -10 -52 26 -55 27 -3 33 -8 38 -35 15 -68 49
-79 39 -12 -9 66 -5 72 57 65 51 -5 54 -7 60 -37 8 -41 29 -69 40 -52 4 6 3
24 -1 40 -5 15 -6 37 -3 48 7 28 -22 38 -143 46 -84 6 -102 5 -113 -8z"/>
<path d="M3625 2516 c-18 -13 -18 -15 11 -39 28 -25 29 -25 47 -7 9 11 17 23
17 28 0 6 -8 12 -17 16 -10 3 -23 8 -28 11 -6 3 -19 -1 -30 -9z"/>
<path d="M3180 2470 c-12 -22 -7 -50 9 -50 12 0 22 53 11 64 -4 4 -13 -2 -20
-14z"/>
<path d="M3300 2475 c0 -9 5 -15 11 -13 6 2 11 8 11 13 0 5 -5 11 -11 13 -6 2
-11 -4 -11 -13z"/>
<path d="M3233 2464 c-9 -25 13 -40 26 -16 10 19 6 32 -11 32 -5 0 -11 -7 -15
-16z"/>
<path d="M3044 3158 c-4 -6 -2 -14 4 -16 7 -2 12 -8 12 -13 0 -13 -28 -11 -32
3 -6 18 -40 1 -36 -18 8 -43 76 -43 96 0 9 20 8 28 -4 41 -19 18 -30 19 -40 3z"/>
<path d="M2940 2995 c0 -8 7 -15 15 -15 8 0 15 7 15 15 0 8 -7 15 -15 15 -8 0
-15 -7 -15 -15z"/>
<path d="M2930 2945 c0 -17 2 -18 24 -9 23 9 20 24 -4 24 -11 0 -20 -7 -20
-15z"/>
<path d="M2950 2885 c-10 -12 -9 -16 3 -21 20 -7 37 3 37 22 0 18 -24 18 -40
-1z"/>
<path d="M4598 2594 c-22 -21 -5 -32 60 -36 78 -5 102 -1 102 18 0 9 -12 14
-34 14 -18 0 -53 3 -77 6 -24 3 -47 2 -51 -2z"/>
<path d="M4636 2521 c-4 -5 3 -15 15 -21 26 -14 92 -4 86 13 -5 15 -93 22
-101 8z"/>
<path d="M2830 2560 c-12 -8 -12 -10 3 -16 21 -8 35 2 21 16 -5 5 -15 6 -24 0z"/>
<path d="M2780 2481 c0 -11 26 -22 34 -14 12 12 5 23 -14 23 -11 0 -20 -4 -20
-9z"/>
<path d="M2936 2454 c-38 -37 -3 -97 56 -97 34 0 68 32 68 64 0 42 -91 66
-124 33z m73 -23 c19 -12 6 -41 -18 -41 -23 0 -35 15 -27 35 6 17 24 19 45 6z"/>
<path d="M2785 2410 c-8 -12 20 -24 35 -15 5 3 10 10 10 16 0 12 -37 12 -45
-1z"/>
<path d="M4175 5123 c-4 -21 -8 -49 -11 -63 -5 -30 11 -60 24 -45 12 13 33
125 26 136 -13 22 -33 7 -39 -28z"/>
<path d="M1424 5068 c-8 -27 -51 -93 -148 -228 -94 -130 -111 -159 -98 -172 6
-6 19 2 35 21 14 17 28 31 31 31 3 0 6 -15 6 -33 0 -27 -5 -35 -31 -44 -34
-13 -31 -33 5 -33 40 0 57 22 59 75 1 28 -2 58 -7 67 -6 14 -2 20 16 27 25 9
78 65 78 81 0 5 -6 10 -12 13 -9 2 1 24 28 63 70 101 91 154 60 154 -8 0 -18
-10 -22 -22z"/>
<path d="M4815 5050 c-3 -5 -3 -14 0 -20 3 -5 -1 -10 -9 -10 -23 0 -20 -17 4
-25 29 -9 60 3 60 24 0 32 -40 55 -55 31z"/>
<path d="M1167 4975 c-20 -30 -66 -91 -102 -135 -36 -45 -65 -85 -65 -90 0 -4
-13 -13 -30 -20 -30 -12 -70 -65 -70 -91 0 -8 -22 -38 -50 -68 -53 -57 -68
-87 -52 -103 7 -7 22 6 47 41 21 29 39 51 40 49 2 -2 17 -31 34 -65 l31 -61
-52 -50 c-47 -45 -51 -52 -34 -58 15 -6 28 3 59 35 23 25 45 40 53 37 22 -8
17 -24 -18 -55 -25 -22 -30 -33 -22 -41 9 -9 20 -4 46 18 25 23 43 30 70 29
40 -1 84 18 92 40 5 11 -4 12 -42 7 -61 -8 -88 13 -137 104 -31 57 -35 73 -30
110 4 23 17 55 30 70 21 24 30 27 91 27 68 0 69 0 86 -35 l17 -35 1 28 c0 16
-4 37 -10 47 -7 14 -1 32 31 81 23 35 56 82 74 104 37 46 65 97 65 120 0 25
-18 17 -37 -18 -10 -17 -56 -83 -102 -145 -71 -96 -87 -112 -105 -106 -11 4
-23 8 -24 9 -2 2 16 29 40 60 80 105 128 179 128 197 0 31 -16 20 -53 -37z"/>
<path d="M998 4911 c-20 -32 -74 -105 -120 -162 -119 -148 -133 -168 -119
-182 13 -13 5 -22 112 117 124 160 189 253 189 271 0 31 -26 13 -62 -44z"/>
<path d="M670 4900 c-51 -61 -60 -91 -60 -200 0 -87 33 -237 65 -300 40 -77
151 -164 201 -158 30 3 46 28 19 28 -32 0 -127 73 -161 124 -42 64 -84 216
-84 306 0 76 22 170 51 217 29 47 17 41 -31 -17z"/>
<path d="M889 4893 c-18 -26 -59 -83 -91 -126 -54 -73 -72 -117 -48 -117 5 0
15 10 21 23 7 12 41 60 76 105 76 101 98 141 85 154 -6 6 -21 -7 -43 -39z"/>
<path d="M1580 4728 c-45 -24 -70 -51 -57 -64 4 -5 21 0 36 9 35 21 41 21 41
3 0 -21 21 -31 31 -15 5 8 6 21 3 31 -2 9 0 19 6 23 14 9 13 35 -3 35 -7 0
-33 -10 -57 -22z"/>
<path d="M1005 4639 c-10 -16 3 -24 37 -24 17 0 33 -6 35 -12 3 -7 -3 -13 -11
-13 -22 0 -40 -42 -32 -74 7 -27 35 -41 66 -31 27 9 25 22 -5 29 -14 4 -25 13
-25 21 0 9 11 20 25 25 30 12 34 49 7 73 -21 19 -87 23 -97 6z"/>
<path d="M848 4456 c-32 -50 -33 -52 -14 -59 8 -3 25 12 45 43 36 55 37 60 14
60 -10 0 -30 -19 -45 -44z"/>
<path d="M1453 4002 c-42 -37 -55 -62 -32 -62 19 0 99 70 99 86 0 23 -23 15
-67 -24z"/>
<path d="M713 4014 c-8 -21 13 -42 28 -27 13 13 5 43 -11 43 -6 0 -13 -7 -17
-16z"/>
<path d="M776 3971 c-10 -11 -30 -21 -44 -23 -24 -3 -28 -9 -35 -53 -7 -47 -4
-116 10 -192 7 -41 34 -44 60 -8 10 14 39 53 66 87 26 33 47 64 47 69 0 33
-70 -25 -116 -96 l-18 -27 -8 23 c-6 16 -5 27 4 34 7 5 31 33 52 62 22 29 45
54 53 57 22 9 14 26 -12 26 -16 0 -34 -13 -56 -40 -18 -22 -36 -40 -40 -40
-16 0 5 40 37 71 19 18 34 41 34 51 0 23 -13 23 -34 -1z"/>
<path d="M1500 3960 c-18 -18 -18 -50 -1 -50 8 0 51 55 51 65 0 12 -32 3 -50
-15z"/>
<path d="M602 3878 c-17 -21 -32 -125 -32 -217 0 -106 21 -239 55 -351 40
-130 40 -123 4 -164 -25 -29 -29 -40 -20 -49 10 -9 19 -5 43 22 24 26 32 31
39 20 14 -23 11 -30 -37 -81 -42 -45 -49 -68 -21 -68 7 0 29 19 49 42 31 36
39 40 48 28 19 -28 10 -49 -45 -108 -53 -58 -69 -92 -42 -92 12 0 74 64 110
114 14 19 15 19 26 -2 6 -11 11 -26 11 -33 0 -7 -32 -45 -71 -86 -66 -68 -78
-92 -52 -100 5 -2 40 30 78 72 54 61 70 73 81 64 8 -6 14 -17 14 -23 0 -6 -41
-55 -91 -109 -72 -77 -89 -101 -79 -110 9 -9 31 9 101 83 72 77 91 92 99 80 5
-8 9 -18 7 -22 -1 -4 -44 -52 -95 -108 -62 -68 -90 -106 -84 -112 6 -6 16 -7
25 -1 17 9 119 123 144 161 9 12 19 22 24 22 12 0 11 -95 0 -140 -6 -19 -15
-54 -21 -77 -6 -25 -17 -43 -25 -43 -13 0 -78 -68 -96 -103 -7 -12 -6 -19 5
-23 8 -3 30 11 53 37 l40 42 6 -110 c4 -61 16 -153 28 -204 14 -62 19 -112 16
-147 -5 -50 -4 -53 16 -50 39 5 44 62 17 196 -35 171 -38 299 -10 419 32 139
26 219 -23 312 -20 40 -37 78 -37 85 0 7 -12 23 -26 35 -43 37 -150 272 -186
407 -31 114 -32 127 -32 312 0 105 -1 192 -2 192 -1 0 -6 -6 -12 -12z"/>
<path d="M1344 3601 c-100 -24 -190 -103 -219 -192 -16 -48 -13 -75 6 -63 6 3
21 29 33 57 62 138 214 195 404 149 50 -12 85 -16 88 -10 26 42 -202 85 -312
59z"/>
<path d="M3730 3539 c-47 -4 -175 -10 -285 -13 -190 -6 -298 -16 -311 -29 -13
-13 6 -39 24 -32 9 4 60 9 112 11 52 2 203 9 335 16 132 6 257 10 278 9 30 -1
37 2 37 18 0 33 -24 36 -190 20z"/>
<path d="M3963 3540 c-24 -10 -30 -26 -12 -32 6 -2 34 -1 62 2 37 4 52 9 52
20 0 18 -67 24 -102 10z"/>
<path d="M1455 3501 c-39 -10 -75 -29 -75 -41 0 -17 17 -19 56 -5 21 8 59 14
85 15 44 0 71 -13 156 -75 21 -16 22 -15 36 12 11 20 12 34 6 46 -11 18 -39
24 -39 7 0 -6 -18 1 -39 16 -43 28 -130 40 -186 25z"/>
<path d="M2991 3475 c-68 -25 -107 -50 -125 -78 -20 -31 3 -28 86 11 45 22
100 45 121 52 39 12 47 24 21 34 -23 9 -33 7 -103 -19z"/>
<path d="M2858 3305 c-9 -10 7 -78 20 -83 10 -3 12 7 10 39 -3 38 -16 58 -30
44z"/>
<path d="M1136 3241 c-21 -34 133 -328 266 -510 54 -72 277 -321 289 -321 33
0 -16 72 -146 215 -45 50 -97 113 -117 140 -87 126 -205 326 -235 399 -31 79
-45 97 -57 77z"/>
<path d="M1152 2967 c-41 -42 -55 -78 -29 -76 16 0 87 86 87 105 0 23 -13 16
-58 -29z"/>
<path d="M1454 2816 c-18 -14 -18 -15 -1 -21 19 -8 50 12 41 26 -7 13 -17 11
-40 -5z"/>
<path d="M1492 2774 c-21 -14 -31 -44 -14 -44 17 0 72 41 67 50 -9 14 -27 12
-53 -6z"/>
<path d="M1543 2723 c-19 -7 -15 -33 5 -33 25 0 46 16 38 29 -7 11 -22 13 -43
4z"/>
<path d="M1608 2659 c-24 -13 -23 -29 1 -29 21 0 45 23 34 33 -8 9 -15 8 -35
-4z"/>
<path d="M796 2569 c-62 -68 -72 -89 -41 -89 14 0 94 89 114 127 24 47 -9 29
-73 -38z"/>
<path d="M1181 2485 c-121 -120 -146 -155 -109 -155 26 0 268 254 268 282 0
23 -37 -6 -159 -127z"/>
<path d="M1680 2601 c-25 -7 -42 -41 -20 -41 18 0 70 30 70 40 0 11 -13 11
-50 1z"/>
<path d="M1733 2540 c-25 -10 -30 -25 -13 -35 12 -8 60 21 60 35 0 12 -17 12
-47 0z"/>
<path d="M1370 2530 c0 -18 -72 -90 -176 -176 -106 -86 -144 -127 -144 -150 0
-27 23 -13 118 74 228 206 275 262 222 262 -11 0 -20 -4 -20 -10z"/>
<path d="M1770 2471 c-14 -28 6 -38 31 -15 24 22 24 34 -1 34 -10 0 -24 -9
-30 -19z"/>
<path d="M1269 2280 c-108 -110 -194 -202 -191 -205 16 -16 47 4 122 78 127
123 285 294 288 311 8 39 -36 2 -219 -184z"/>
<path d="M2436 2449 c-26 -31 -36 -74 -15 -67 18 6 61 85 50 92 -5 3 -21 -8
-35 -25z"/>
<path d="M2500 2438 c-23 -37 -24 -44 -10 -53 10 -6 50 51 50 73 0 22 -20 12
-40 -20z"/>
<path d="M1877 2453 c-10 -9 -9 -43 1 -43 10 0 42 33 42 43 0 9 -35 9 -43 0z"/>
<path d="M2560 2441 c-12 -23 -13 -61 -2 -61 7 0 42 63 42 75 0 14 -31 2 -40
-14z"/>
<path d="M1964 2439 c-3 -6 -2 -15 4 -21 13 -13 32 -2 32 18 0 16 -26 19 -36
3z"/>
<path d="M2640 2435 c-7 -8 -9 -22 -6 -31 5 -13 9 -14 21 -4 16 13 21 50 6 50
-5 0 -14 -7 -21 -15z"/>
<path d="M1514 2422 c-6 -4 -40 -47 -74 -97 -35 -49 -88 -116 -117 -148 -48
-53 -68 -97 -44 -97 26 0 261 303 261 337 0 14 -9 17 -26 5z"/>
<path d="M2070 2415 c0 -8 4 -15 9 -15 5 0 11 7 15 15 3 9 0 15 -9 15 -8 0
-15 -7 -15 -15z"/>
<path d="M1760 2367 c0 -21 73 -44 200 -62 58 -8 108 -15 113 -15 4 0 7 -4 7
-9 0 -5 -29 -8 -64 -7 -71 1 -86 -6 -69 -33 9 -14 8 -23 -4 -40 -24 -35 -6
-37 26 -2 28 30 64 41 75 22 3 -4 -3 -16 -14 -26 -20 -18 -28 -55 -11 -55 5 0
16 12 26 26 9 14 30 40 46 56 16 17 26 34 24 38 -9 15 21 29 48 22 l27 -7 -35
-49 c-25 -35 -32 -53 -25 -60 8 -8 13 -8 18 0 45 70 89 114 112 114 42 0 42
-10 4 -53 -25 -27 -33 -42 -26 -49 7 -7 26 5 60 40 54 56 76 65 143 60 l44 -3
-45 -26 c-55 -33 -84 -64 -75 -79 5 -8 14 -5 29 8 11 11 45 34 74 52 29 18 51
37 49 44 -2 7 26 14 82 21 65 8 86 14 86 25 0 16 -26 17 -223 2 -61 -5 -175
-3 -285 5 -156 10 -229 19 -389 50 -21 4 -28 1 -28 -10z"/>
<path d="M1511 2276 c-55 -82 -72 -126 -48 -126 12 0 127 174 127 193 0 4 -7
7 -15 7 -8 0 -37 -33 -64 -74z"/>
<path d="M782 2307 c-32 -33 -42 -67 -19 -67 11 1 77 80 77 93 0 17 -29 4 -58
-26z"/>
<path d="M4826 2301 c-12 -18 32 -28 134 -31 142 -5 170 -2 170 15 0 11 -11
15 -43 15 -24 0 -91 3 -149 6 -74 5 -107 4 -112 -5z"/>
<path d="M1677 2276 c-6 -16 16 -40 26 -29 4 3 7 15 7 25 0 21 -25 24 -33 4z"/>
<path d="M1595 2260 c-10 -11 -15 -26 -11 -36 6 -15 9 -14 31 6 27 26 33 50
12 50 -8 0 -22 -9 -32 -20z"/>
<path d="M2560 2246 c-57 -42 -74 -62 -60 -71 11 -7 140 83 140 97 0 18 -37 6
-80 -26z"/>
<path d="M2669 2250 c-19 -10 -41 -26 -48 -34 -25 -30 15 -30 56 0 21 16 40
30 42 31 3 2 0 7 -5 12 -5 6 -23 2 -45 -9z"/>
<path d="M5427 2217 c-17 -12 -17 -14 -3 -26 22 -18 101 -3 101 19 0 20 -74
26 -98 7z"/>
<path d="M792 2169 c-23 -21 -27 -34 -14 -43 11 -7 27 5 41 31 15 30 -1 37
-27 12z"/>
<path d="M4890 2170 c-280 -4 -325 -7 -325 -20 0 -13 48 -15 365 -17 216 -1
372 3 382 8 10 5 18 16 18 24 0 12 -13 14 -57 13 -32 -2 -204 -5 -383 -8z"/>
<path d="M2372 1963 c-118 -176 -175 -274 -164 -285 16 -16 28 -3 74 75 23 40
70 117 105 171 35 55 63 106 63 113 0 30 -23 8 -78 -74z"/>
<path d="M2712 1953 c-39 -55 -72 -108 -72 -121 0 -13 4 -22 9 -20 13 4 161
213 161 227 0 31 -33 2 -98 -86z"/>
<path d="M3597 2019 c-35 -29 -49 -59 -27 -59 13 0 90 70 90 81 0 18 -26 8
-63 -22z"/>
<path d="M2508 1988 c-124 -190 -170 -288 -134 -288 9 0 16 4 16 9 0 14 111
214 146 262 37 50 42 69 20 69 -8 0 -29 -24 -48 -52z"/>
<path d="M2648 1998 c-46 -56 -147 -213 -165 -256 -14 -35 -12 -62 6 -62 5 0
13 10 18 23 17 47 108 199 150 249 40 49 55 88 34 88 -5 0 -24 -19 -43 -42z"/>
<path d="M3689 2012 c-20 -17 -30 -35 -28 -47 4 -17 9 -15 46 19 39 35 47 56
23 56 -6 0 -24 -13 -41 -28z"/>
<path d="M4662 2024 c-21 -15 -31 -64 -13 -64 13 0 52 68 42 74 -4 3 -17 -2
-29 -10z"/>
<path d="M3800 2002 c-25 -21 -32 -33 -26 -47 6 -16 11 -14 46 20 22 22 40 43
40 47 0 16 -27 7 -60 -20z"/>
<path d="M4151 1995 c-34 -39 -39 -55 -17 -55 17 0 78 74 69 84 -12 11 -21 6
-52 -29z"/>
<path d="M3906 1999 c-24 -19 -36 -59 -18 -59 9 0 44 36 56 57 12 22 -11 23
-38 2z"/>
<path d="M4375 1990 c-18 -35 -11 -58 12 -39 8 7 21 25 29 41 14 26 13 28 -5
28 -13 0 -27 -12 -36 -30z"/>
<path d="M4521 1994 c-24 -30 -26 -40 -10 -50 14 -8 48 33 49 59 0 25 -15 21
-39 -9z"/>
<path d="M4023 1989 c-30 -19 -46 -59 -23 -59 13 0 80 60 80 71 0 15 -23 10
-57 -12z"/>
<path d="M4241 1984 c-23 -29 -27 -54 -10 -54 13 0 48 41 49 57 0 24 -19 22
-39 -3z"/>
<path d="M4724 1999 c-8 -14 11 -33 25 -25 6 4 11 14 11 22 0 16 -26 19 -36 3z"/>
<path d="M2811 1955 c-41 -44 -47 -65 -24 -72 13 -5 95 96 87 108 -10 16 -21
10 -63 -36z"/>
<path d="M2881 1925 c-31 -35 -39 -59 -23 -69 7 -4 92 86 92 98 0 19 -43 1
-69 -29z"/>
<path d="M5303 1950 c-32 -13 -29 -29 7 -37 17 -3 33 -9 35 -13 3 -5 -56 -66
-130 -137 -123 -118 -157 -163 -122 -163 12 0 253 236 296 290 16 20 23 23 38
14 40 -25 27 -44 -123 -188 -116 -111 -146 -146 -141 -160 6 -15 32 6 149 118
78 75 145 136 149 136 4 0 11 -14 14 -32 8 -35 3 -40 -193 -219 -71 -65 -81
-77 -68 -88 13 -11 33 4 130 93 63 58 117 106 120 106 3 0 6 -16 6 -35 0 -30
-11 -45 -95 -127 -87 -85 -109 -118 -87 -132 5 -3 42 29 82 69 41 41 78 75 82
75 5 0 8 -9 8 -20 0 -25 27 -27 34 -2 2 9 10 72 17 139 10 98 10 135 0 194
-17 94 -40 119 -110 119 -27 0 -55 2 -63 4 -7 3 -23 1 -35 -4z"/>
<path d="M2000 1820 c-80 -113 -100 -155 -73 -155 12 0 30 24 120 160 48 73
65 115 46 115 -5 0 -46 -54 -93 -120z"/>
<path d="M1489 1818 c-49 -50 -89 -95 -89 -99 0 -4 5 -11 11 -15 11 -6 199
180 199 198 0 26 -42 -3 -121 -84z"/>
<path d="M1648 1847 c-26 -34 -67 -82 -92 -106 -41 -41 -51 -71 -22 -71 22 0
186 201 186 227 0 28 -27 10 -72 -50z"/>
<path d="M1318 1876 c-15 -13 -32 -26 -39 -28 -8 -3 -10 -11 -6 -22 7 -16 8
-16 37 1 17 10 43 30 57 45 l27 28 -25 0 c-13 0 -36 -11 -51 -24z"/>
<path d="M2941 1874 c-31 -26 -42 -64 -18 -64 6 0 24 16 40 34 45 58 32 76
-22 30z"/>
<path d="M3009 1797 c-107 -77 -199 -160 -199 -181 0 -30 34 -16 79 32 26 27
84 76 131 110 135 97 140 103 98 101 -13 0 -62 -28 -109 -62z"/>
<path d="M3505 1809 c-39 -36 -58 -69 -39 -69 13 0 104 84 104 97 0 23 -19 15
-65 -28z"/>
<path d="M2716 1799 c-49 -39 -106 -119 -106 -149 0 -34 31 -60 72 -60 37 0
43 -15 19 -46 -23 -29 -27 -49 -11 -59 13 -8 83 102 76 120 -2 7 -18 16 -35
20 -17 4 -31 9 -31 12 0 4 25 32 56 65 44 46 55 64 52 85 -2 23 -9 29 -34 31
-19 2 -40 -5 -58 -19z m44 -43 c0 -14 -101 -108 -109 -101 -10 10 82 115 100
115 5 0 9 -6 9 -14z"/>
<path d="M1098 1749 c-37 -27 -68 -80 -68 -115 0 -57 58 -106 173 -147 47 -17
63 -27 65 -43 5 -33 31 -51 98 -68 84 -22 99 -20 112 9 12 25 13 25 94 19 46
-4 86 -11 89 -16 3 -5 12 -41 19 -80 14 -82 31 -103 95 -119 24 -6 48 -16 53
-23 8 -10 32 -208 32 -264 0 -13 -6 -22 -15 -22 -8 0 -19 -9 -25 -19 -23 -43
-4 -191 25 -191 19 0 22 26 12 82 -15 77 -9 82 80 74 42 -4 84 -11 92 -16 10
-5 23 -3 36 6 31 23 64 18 76 -13 13 -34 6 -51 -23 -55 -33 -4 -29 -32 7 -39
28 -6 29 -7 8 -14 -25 -8 -32 -35 -9 -35 27 0 27 -20 1 -30 -26 -10 -26 -30 1
-30 23 0 16 -27 -8 -34 l-23 -6 24 -20 c13 -11 22 -22 20 -24 -12 -9 -101 -28
-106 -22 -4 4 -2 16 5 27 7 11 16 64 19 118 l6 97 -28 22 c-35 28 -47 28 -84
-3 -24 -21 -31 -35 -33 -73 l-3 -47 -111 4 c-105 3 -218 -11 -229 -29 -3 -4
-6 -31 -7 -60 -2 -39 2 -55 15 -64 10 -8 69 -16 144 -20 70 -3 131 -10 136
-15 4 -4 11 -37 15 -72 5 -47 11 -64 22 -64 9 0 16 11 18 25 2 17 18 35 48 55
24 17 44 36 44 43 0 16 22 11 28 -6 2 -7 -5 -15 -15 -18 -31 -12 -83 -54 -83
-70 0 -22 18 -17 61 17 39 30 39 30 39 7 -1 -15 -12 -30 -32 -43 -44 -28 -33
-50 15 -30 14 6 17 1 17 -31 0 -34 -4 -41 -30 -52 -44 -20 -39 -41 9 -37 21 1
44 6 50 9 7 5 11 54 11 142 l0 134 39 0 c22 0 44 6 51 15 9 10 13 66 14 185
l1 171 -25 19 c-25 19 -25 21 -25 167 l0 148 37 6 c71 11 104 66 92 155 l-6
54 105 0 c79 0 107 4 117 15 6 8 9 18 6 23 -3 5 -146 8 -328 6 -453 -4 -680
19 -908 92 -96 31 -152 63 -168 97 -15 31 -7 51 40 105 16 18 26 37 23 43 -9
13 -16 11 -47 -12z m291 -313 c30 -7 57 -18 59 -24 2 -7 1 -12 -2 -12 -18 0
-122 32 -130 40 -13 13 5 12 73 -4z m401 -54 c0 -12 -50 -82 -59 -82 -10 0
-21 35 -21 68 0 19 5 22 40 22 22 0 40 -3 40 -8z m100 -6 c0 -3 -17 -24 -37
-48 -21 -24 -48 -57 -61 -72 -16 -21 -26 -26 -33 -19 -11 11 22 72 65 121 16
18 66 32 66 18z m90 -9 c0 -7 -25 -37 -55 -67 -30 -30 -55 -60 -55 -67 0 -7
-11 -13 -25 -13 -14 0 -25 3 -25 7 0 4 17 27 38 52 21 25 47 58 56 74 19 28
66 39 66 14z m180 7 c0 -3 -18 -32 -40 -65 -38 -55 -44 -79 -19 -79 16 0 88
120 82 137 -4 11 0 14 18 11 22 -3 24 -9 27 -59 5 -91 -4 -96 -175 -104 -116
-6 -143 -4 -143 7 0 19 125 151 139 147 7 -3 -4 -25 -29 -58 -22 -30 -40 -58
-40 -62 0 -19 25 -20 39 -2 9 12 35 46 59 77 26 34 51 56 63 56 10 0 19 -2 19
-6z m-233 -229 c-34 -30 -43 -31 -50 -6 -7 26 0 31 42 31 l36 -1 -28 -24z m54
-42 c-50 -55 -63 -83 -40 -83 6 0 42 33 79 73 38 39 71 69 75 65 10 -10 -27
-66 -69 -107 -35 -34 -48 -71 -25 -71 6 0 29 19 50 43 l38 42 1 -32 c0 -25 -9
-39 -46 -70 -38 -33 -43 -41 -31 -51 11 -10 20 -8 40 8 33 26 37 25 37 -9 0
-41 -41 -56 -123 -45 l-62 9 -7 65 c-4 36 -9 80 -12 98 -4 28 -1 34 27 48 18
9 49 32 70 51 58 52 56 32 -2 -34z m33 -468 l-2 -90 -51 -5 c-29 -3 -54 -4
-57 -1 -2 2 -4 17 -4 33 0 21 5 28 19 28 30 0 44 26 38 67 -7 43 7 65 37 61
20 -3 21 -9 20 -93z m-162 -48 c4 -7 8 -29 8 -50 l0 -39 -102 7 c-144 9 -148
10 -148 44 0 25 5 30 43 39 88 24 184 23 199 -1z m72 -112 c3 -8 14 -15 25
-15 32 0 32 -15 0 -34 -28 -16 -29 -16 -35 1 -3 10 -9 25 -14 34 -9 16 -4 29
11 29 4 0 9 -7 13 -15z"/>
<path d="M1778 553 c-34 -3 -48 -8 -48 -19 0 -19 93 -20 109 -1 10 13 5 29 -8
25 -3 -1 -27 -3 -53 -5z"/>
<path d="M3514 1751 c-29 -18 -49 -53 -37 -65 8 -8 83 56 83 71 0 18 -9 16
-46 -6z"/>
<path d="M3070 1695 c-145 -95 -236 -185 -186 -185 8 0 36 20 63 44 26 24 91
73 143 109 52 35 94 68 93 73 -5 21 -33 11 -113 -41z"/>
<path d="M3532 1677 c-23 -25 -29 -47 -12 -47 15 0 60 42 60 57 0 20 -24 15
-48 -10z"/>
<path d="M2515 1625 c-5 -2 -22 -6 -37 -9 -22 -5 -27 -11 -26 -39 0 -17 -3
-44 -7 -59 -12 -46 19 -34 46 17 13 25 30 45 36 45 15 0 17 -16 3 -25 -12 -8
-13 -65 -1 -65 10 0 71 97 71 114 0 19 -53 32 -85 21z"/>
<path d="M3084 1581 c-90 -63 -171 -148 -155 -164 8 -8 26 3 69 45 31 31 92
79 135 107 42 29 77 54 77 57 0 2 -13 4 -28 4 -18 0 -55 -18 -98 -49z"/>
<path d="M3547 1602 c-21 -22 -21 -32 -4 -32 18 0 49 34 40 43 -10 11 -19 8
-36 -11z"/>
<path d="M1693 1549 c-54 -51 -64 -69 -39 -69 18 0 108 98 101 110 -8 13 -3
17 -62 -41z"/>
<path d="M1990 1554 c-30 -34 -36 -64 -15 -71 12 -4 76 87 69 99 -9 15 -21 9
-54 -28z"/>
<path d="M2362 1545 c-23 -48 -29 -85 -12 -85 11 0 60 93 60 115 0 30 -27 14
-48 -30z"/>
<path d="M2620 1553 c-21 -27 -23 -54 -5 -60 12 -4 45 48 45 71 0 24 -16 19
-40 -11z"/>
<path d="M3556 1514 c-4 -9 -4 -19 -2 -22 10 -9 36 8 36 23 0 20 -26 19 -34
-1z"/>
<path d="M2760 1496 c0 -8 5 -18 10 -21 20 -13 9 -49 -29 -90 -49 -53 -65 -81
-51 -90 6 -4 29 14 51 39 39 44 59 51 59 22 0 -15 -98 -126 -111 -126 -5 0 -9
14 -9 30 0 42 -27 103 -42 97 -7 -2 -12 -10 -10 -17 10 -42 23 -189 32 -337 5
-95 14 -181 20 -193 20 -38 31 -22 28 43 l-2 64 79 86 c44 48 83 87 87 87 4 0
10 -11 14 -24 5 -20 -8 -38 -80 -110 -47 -48 -86 -93 -86 -101 0 -22 38 -18
50 4 11 21 128 136 138 136 4 0 8 -7 10 -16 2 -9 -35 -53 -88 -104 -50 -49
-89 -93 -87 -99 9 -26 33 -11 107 66 65 66 83 80 90 68 15 -23 12 -50 -5 -50
-8 0 -19 -8 -24 -17 -5 -10 -39 -42 -75 -72 -36 -30 -66 -61 -66 -68 0 -31 43
-8 115 62 43 41 79 74 79 73 9 -28 35 -64 48 -66 14 -3 15 2 8 30 -14 55 -45
147 -83 250 -21 53 -56 173 -80 265 -23 92 -46 174 -50 181 -11 17 -47 15 -47
-2z m63 -217 c4 -16 -10 -40 -56 -95 -34 -41 -65 -74 -69 -74 -14 0 -8 39 10
68 23 37 94 122 103 122 4 0 9 -10 12 -21z m35 -140 c-2 -4 -36 -42 -77 -84
-53 -54 -77 -72 -83 -63 -15 24 -8 39 50 110 31 39 64 79 72 91 14 19 15 19
28 -13 7 -18 12 -36 10 -41z"/>
<path d="M3104 1445 c-103 -82 -145 -126 -135 -143 6 -10 29 5 87 55 43 38 96
81 117 97 40 30 45 41 24 49 -8 3 -49 -23 -93 -58z"/>
<path d="M5396 1381 c-40 -40 -57 -65 -53 -75 9 -23 22 -20 49 12 13 15 31 33
41 41 29 23 22 -35 -8 -61 -30 -26 -32 -48 -6 -48 11 0 21 -8 23 -17 2 -14 7
-12 21 10 27 42 26 197 -1 197 -4 0 -34 -27 -66 -59z"/>
<path d="M2635 1425 c-5 -2 -27 -6 -47 -10 -55 -9 -51 -35 5 -35 47 0 84 20
73 38 -7 12 -13 13 -31 7z"/>
<path d="M3120 1358 c-96 -74 -131 -108 -125 -118 4 -6 10 -10 15 -10 16 0
201 152 197 163 -7 21 -23 15 -87 -35z"/>
<path d="M3100 1225 c-41 -30 -84 -61 -95 -69 -16 -11 -17 -17 -8 -27 10 -10
24 -4 70 26 70 46 143 106 143 117 0 21 -42 3 -110 -47z"/>
<path d="M3110 1130 c-99 -58 -108 -66 -93 -81 8 -8 20 -6 44 6 48 25 159 99
159 106 0 22 -37 11 -110 -31z"/>
<path d="M3138 1004 c-47 -24 -64 -54 -31 -54 23 0 93 50 93 66 0 19 -7 17
-62 -12z"/>
<path d="M3137 873 c-16 -15 -6 -34 15 -31 29 4 38 38 10 38 -10 0 -22 -3 -25
-7z"/>
<path d="M2905 729 c-54 -44 -68 -69 -38 -69 22 1 38 13 87 68 31 34 35 42 20
42 -11 -1 -41 -19 -69 -41z"/>
</g>
</svg>
